<svg xmlns="http://www.w3.org/2000/svg" width="191" height="231" data-name="Layer 1" viewBox="0 0 191 231"><path d="M95.5 5.9l94.9 54.8v109.6l-94.9 54.8L.6 170.3V60.7L95.5 5.9z"/><path fill="#fff" d="M43.5 157.8a1.7 1.7 0 0 1-1.8-1.8v-21.8H17.9a1.8 1.8 0 0 1 0-3.6h13.5v-11.7a1.7 1.7 0 0 1 1.8-1.8h7a57.1 57.1 0 0 1 55.1-43.7c.2-.2.4-.2.7 0a56.9 56.9 0 0 1 54.7 43.7h7a1.7 1.7 0 0 1 1.8 1.8v11.7H173a1.8 1.8 0 1 1 0 3.6h-23.7V156a1.7 1.7 0 0 1-1.8 1.8zM35 120.7v9.9h121v-9.9zm56.9-43.6c-23 1.4-42.3 18.2-47.9 40h19.3zm-46.6 57.1v20h48.4v-20zm48.4-53.5l-25.9 36.4h25.9zm3.6-3.7v40.1H147A53.5 53.5 0 0 0 97.3 77zm0 57.2v20h8.1v-20zm11.7 0v20h36.7v-20z"/></svg>