<svg xmlns="http://www.w3.org/2000/svg" width="191" height="231" data-name="Layer 1" viewBox="0 0 191 231"><path d="M45.3 134.2h48.4v19.98H45.3zm48.4-17.1V80.7l-25.9 36.4h25.9zM97.3 77v40.1H147A53.5 53.5 0 0 0 97.3 77zm0 57.2h8.1v19.98h-8.1zm-5.4-57.1c-23 1.4-42.3 18.2-47.9 40h19.3z"/><path d="M95.5 5.9L.6 60.7v109.6l94.9 54.8 94.9-54.8V60.7zm77.6 128.3h-23.8V156a1.7 1.7 0 0 1-1.8 1.8h-104a1.7 1.7 0 0 1-1.8-1.8v-21.8H17.9a1.8 1.8 0 0 1 0-3.6h13.5v-11.7a1.7 1.7 0 0 1 1.8-1.8h7a57.1 57.1 0 0 1 55.1-43.7c.2-.2.4-.2.7 0a56.9 56.9 0 0 1 54.7 43.7h7a1.7 1.7 0 0 1 1.8 1.8v11.7H173a1.8 1.8 0 1 1 0 3.6z"/><path d="M35 120.7h121v9.9H35zm74 13.5h36.7v19.98H109z"/></svg>