<svg xmlns="http://www.w3.org/2000/svg"><symbol id="rover" viewBox="0 0 191 231"><path d="M68.1 147.4h18v11.34h-18zm21.6 0h11.5v11.34H89.7zm5.8-75.1c-21.1 0-38.7 12.8-39.6 36h79.2c-.9-23.2-18.5-36-39.6-36zM53 147.4h11.5v11.34H53zm51.9 0h18v11.34h-18zm21.6 0H138v11.34h-11.5z"/><path d="M95.5 5.9L.6 60.7v109.6l94.9 54.8 94.9-54.8V60.7zm56.9 139.7a1.7 1.7 0 0 1-1.8 1.8h-9v11.3h9a1.8 1.8 0 1 1 0 3.6H40.4a1.8 1.8 0 0 1 0-3.6h9v-11.3h-9a1.7 1.7 0 0 1-1.8-1.8v-35.5a1.7 1.7 0 0 1 1.8-1.8h11.9c.9-25.6 20-39.6 43.2-39.6s42.3 14 43.2 39.6h11.9a1.7 1.7 0 0 1 1.8 1.8z"/><path d="M42.2 143.8h106.6v-31.9H42.2zm52.4-12.2h43.9a1.8 1.8 0 0 1 0 3.6H94.6a1.8 1.8 0 1 1 0-3.6z"/></symbol><symbol id="building" viewBox="0 0 191 231"><path d="M45.3 134.2h48.4v19.98H45.3zm48.4-17.1V80.7l-25.9 36.4h25.9zM97.3 77v40.1H147A53.5 53.5 0 0 0 97.3 77zm0 57.2h8.1v19.98h-8.1zm-5.4-57.1c-23 1.4-42.3 18.2-47.9 40h19.3z"/><path d="M95.5 5.9L.6 60.7v109.6l94.9 54.8 94.9-54.8V60.7zm77.6 128.3h-23.8V156a1.7 1.7 0 0 1-1.8 1.8h-104a1.7 1.7 0 0 1-1.8-1.8v-21.8H17.9a1.8 1.8 0 0 1 0-3.6h13.5v-11.7a1.7 1.7 0 0 1 1.8-1.8h7a57.1 57.1 0 0 1 55.1-43.7c.2-.2.4-.2.7 0a56.9 56.9 0 0 1 54.7 43.7h7a1.7 1.7 0 0 1 1.8 1.8v11.7H173a1.8 1.8 0 1 1 0 3.6z"/><path d="M35 120.7h121v9.9H35zm74 13.5h36.7v19.98H109z"/></symbol><symbol id="ship" viewBox="0 0 191 231"><path d="M68.8 137.6H56.9L41 156.3l2.6 3.6 30.4-16-5.2-6.3zm-22-12.9h98.5v9.36H46.8zm86-3.6a43.5 43.5 0 0 0 2.2-13.7 39 39 0 0 0-77.9 0c0 4.7.4 9.5 2.2 13.7zm-73.4 34.7h24.5l-7.4-9-17.1 9zm61.9-18.2l-5.4 6.3 30.6 16 2.5-3.4-15.8-18.9h-11.9z"/><path d="M95 4.9L.1 59.7v109.6L95 224.1l94.9-54.8V59.7zm57.6 152.5l-4.1 5.9a1.9 1.9 0 0 1-2.3.5l-8.6-4.5H52.4l-8.6 4.5a2 2 0 0 1-2.3-.5l-4.1-5.9a1.9 1.9 0 0 1 .2-2.2l14.9-17.6H45a1.7 1.7 0 0 1-1.8-1.8v-13A1.7 1.7 0 0 1 45 121h10.4a50.3 50.3 0 0 1-2-13.7 42.6 42.6 0 0 1 85.1 0 44.2 44.2 0 0 1-2 13.7h10.4a1.7 1.7 0 0 1 1.8 1.8v13a1.7 1.7 0 0 1-1.8 1.8h-9.2l14.8 17.6a1.9 1.9 0 0 1 .1 2.2z"/><path d="M106.2 155.8h24.5l-17.1-9-7.4 9zm-32.8-18.2l15.2 18.2h12.9l15.1-18.2H73.4z"/></symbol></svg>