<svg xmlns="http://www.w3.org/2000/svg" width="191" height="231" data-name="Layer 1" viewBox="0 0 191 231"><path d="M68.1 147.4h18v11.34h-18zm21.6 0h11.5v11.34H89.7zm5.8-75.1c-21.1 0-38.7 12.8-39.6 36h79.2c-.9-23.2-18.5-36-39.6-36zM53 147.4h11.5v11.34H53zm51.9 0h18v11.34h-18zm21.6 0H138v11.34h-11.5z"/><path d="M95.5 5.9L.6 60.7v109.6l94.9 54.8 94.9-54.8V60.7zm56.9 139.7a1.7 1.7 0 0 1-1.8 1.8h-9v11.3h9a1.8 1.8 0 1 1 0 3.6H40.4a1.8 1.8 0 0 1 0-3.6h9v-11.3h-9a1.7 1.7 0 0 1-1.8-1.8v-35.5a1.7 1.7 0 0 1 1.8-1.8h11.9c.9-25.6 20-39.6 43.2-39.6s42.3 14 43.2 39.6h11.9a1.7 1.7 0 0 1 1.8 1.8z"/><path d="M42.2 143.8h106.6v-31.9H42.2zm52.4-12.2h43.9a1.8 1.8 0 0 1 0 3.6H94.6a1.8 1.8 0 1 1 0-3.6z"/></svg>