<svg xmlns="http://www.w3.org/2000/svg" width="191" height="231" data-name="Layer 1" viewBox="0 0 191 231"><path d="M95.5 5.9l94.9 54.8v109.6l-94.9 54.8L.6 170.3V60.7L95.5 5.9z"/><path fill="#fff" d="M40.4 162.3a1.8 1.8 0 0 1 0-3.6h9v-11.3h-9a1.7 1.7 0 0 1-1.8-1.8v-35.5a1.7 1.7 0 0 1 1.8-1.8h11.9c.9-25.6 20-39.6 43.2-39.6s42.3 14 43.2 39.6h11.9a1.7 1.7 0 0 1 1.8 1.8v35.5a1.7 1.7 0 0 1-1.8 1.8h-9v11.3h9a1.8 1.8 0 1 1 0 3.6zm1.8-50.4v31.9h106.6v-31.9zM53 147.4v11.3h11.5v-11.3zm2.9-39.1h79.2c-.9-23.2-18.5-36-39.6-36s-38.7 12.8-39.6 36zm12.2 39.1v11.3h18v-11.3zm21.6 0v11.3h11.5v-11.3zm48.8-12.2H94.6a1.8 1.8 0 1 1 0-3.6h43.9a1.8 1.8 0 0 1 0 3.6zm-33.7 12.2v11.3h18v-11.3zm21.6 0v11.3H138v-11.3z"/></svg>