<svg xmlns="http://www.w3.org/2000/svg" width="191" height="231" data-name="Layer 1" viewBox="0 0 191 231"><path d="M68.8 137.6H56.9L41 156.3l2.6 3.6 30.4-16-5.2-6.3zm-22-12.9h98.5v9.36H46.8zm86-3.6a43.5 43.5 0 0 0 2.2-13.7 39 39 0 0 0-77.9 0c0 4.7.4 9.5 2.2 13.7zm-73.4 34.7h24.5l-7.4-9-17.1 9zm61.9-18.2l-5.4 6.3 30.6 16 2.5-3.4-15.8-18.9h-11.9z"/><path d="M95 4.9L.1 59.7v109.6L95 224.1l94.9-54.8V59.7zm57.6 152.5l-4.1 5.9a1.9 1.9 0 0 1-2.3.5l-8.6-4.5H52.4l-8.6 4.5a2 2 0 0 1-2.3-.5l-4.1-5.9a1.9 1.9 0 0 1 .2-2.2l14.9-17.6H45a1.7 1.7 0 0 1-1.8-1.8v-13A1.7 1.7 0 0 1 45 121h10.4a50.3 50.3 0 0 1-2-13.7 42.6 42.6 0 0 1 85.1 0 44.2 44.2 0 0 1-2 13.7h10.4a1.7 1.7 0 0 1 1.8 1.8v13a1.7 1.7 0 0 1-1.8 1.8h-9.2l14.8 17.6a1.9 1.9 0 0 1 .1 2.2z"/><path d="M106.2 155.8h24.5l-17.1-9-7.4 9zm-32.8-18.2l15.2 18.2h12.9l15.1-18.2H73.4z"/></svg>